<svg xmlns="http://www.w3.org/2000/svg" width="681.5" height="120.814" viewBox="0 0 681.5 120.814">
  <path id="Subtraction_6" data-name="Subtraction 6" d="M-2589.5,691H-3270V576.012a163.568,163.568,0,0,0,41.865,33.038,201.7,201.7,0,0,0,33,14.623,254.707,254.707,0,0,0,41.672,10.276c33.1,5.368,71.945,11.5,114.211,16.319,22.86,2.606,45.048,4.624,65.947,6,23.879,1.569,47.081,2.365,68.962,2.365,21.493,0,42.386-.766,62.1-2.278,21.331-1.634,41.941-4.192,61.259-7.6a485.554,485.554,0,0,0,58.908-14.083c9.639-2.982,19.094-6.291,28.1-9.832,9.263-3.642,18.328-7.641,26.944-11.886,30.792-15.173,56.88-29.1,77.54-41.384V691Z" transform="translate(3270.5 -570.686)" fill="#d00d3f" stroke="rgba(0,0,0,0)" stroke-miterlimit="10" stroke-width="1"/>
</svg>
