<svg xmlns="http://www.w3.org/2000/svg" width="108" height="38.41" viewBox="0 0 108 38.41">
  <g id="Group_420" data-name="Group 420" transform="translate(-40.698 -38.407)">
    <circle id="Ellipse_1" data-name="Ellipse 1" cx="1.904" cy="1.904" r="1.904" transform="translate(44.937 73.009)" fill="#123736"/>
    <circle id="Ellipse_2" data-name="Ellipse 2" cx="1.904" cy="1.904" r="1.904" transform="translate(59.919 73.009)" fill="#123736"/>
    <g id="Group_11" data-name="Group 11">
      <path id="Path_4" data-name="Path 4" d="M70.713,74.961h1.605v.192H70.713v1.08h1.73v.2H70.5V73.7H72.4v.2H70.713Z" fill="#3d1d2e"/>
      <path id="Path_5" data-name="Path 5" d="M76.4,76.437l-.3-.673H74.46l-.3.673h-.227l1.229-2.74H75.4l1.229,2.74Zm-.383-.869L75.278,73.9l-.735,1.668Z" fill="#3d1d2e"/>
      <path id="Path_6" data-name="Path 6" d="M79.966,74.225a.888.888,0,0,0-.83-.372c-.321,0-.83.118-.83.556,0,.348.376.431.838.517.528.1,1.076.2,1.076.787,0,.618-.626.767-1.084.767a1.233,1.233,0,0,1-1.124-.6l.188-.094a1.074,1.074,0,0,0,.936.5c.336,0,.873-.094.873-.579,0-.411-.451-.5-.9-.587-.5-.1-1.014-.2-1.014-.705-.011-.579.592-.76,1.042-.76a1.054,1.054,0,0,1,1,.466Z" fill="#3d1d2e"/>
      <path id="Path_7" data-name="Path 7" d="M82.684,75.341,81.615,73.7v0h.247l.928,1.44.931-1.44h.247v0l-1.073,1.64v1.1h-.211Z" fill="#3d1d2e"/>
      <path id="Path_8" data-name="Path 8" d="M89.268,76.269a.221.221,0,0,1-.442,0A.221.221,0,0,1,89.268,76.269Z" fill="#3d1d2e"/>
      <path id="Path_9" data-name="Path 9" d="M97.5,75.067a1.493,1.493,0,0,1-.321.935l.348.337-.133.137-.344-.329a1.392,1.392,0,0,1-.932.317,1.4,1.4,0,1,1,1.382-1.4Zm-2.56-.024a1.177,1.177,0,1,0,1.178-1.182A1.143,1.143,0,0,0,94.935,75.043Z" fill="#3d1d2e"/>
      <path id="Path_10" data-name="Path 10" d="M101.337,73.7v1.7a1.049,1.049,0,1,1-2.1,0V73.7h.207v1.7a.842.842,0,1,0,1.683,0V73.7Z" fill="#3d1d2e"/>
      <path id="Path_11" data-name="Path 11" d="M103.256,76.437V73.7h.208v2.74Z" fill="#3d1d2e"/>
      <path id="Path_12" data-name="Path 12" d="M107.646,76.057a1.413,1.413,0,0,1-1,.411,1.329,1.329,0,0,1-1.409-1.385,1.342,1.342,0,0,1,1.409-1.418,1.417,1.417,0,0,1,1,.411l-.145.126a1.2,1.2,0,0,0-.854-.349,1.21,1.21,0,0,0,0,2.419,1.225,1.225,0,0,0,.858-.348Z" fill="#3d1d2e"/>
      <path id="Path_13" data-name="Path 13" d="M111.3,76.437h-.266l-1.444-1.351v1.347h-.212V73.7h.212v1.248L110.92,73.7h.254v.019L109.8,75.008l1.5,1.413Z" fill="#3d1d2e"/>
      <path id="Path_14" data-name="Path 14" d="M116.494,76.269a.221.221,0,0,1-.442,0A.221.221,0,0,1,116.494,76.269Z" fill="#3d1d2e"/>
      <path id="Path_15" data-name="Path 15" d="M124.313,76.437h-.278l-.947-1.038h-.747v1.038h-.212V73.7h1.206a.846.846,0,0,1,.9.853.809.809,0,0,1-.888.838ZM122.341,75.2h.97a.613.613,0,0,0,.693-.654.631.631,0,0,0-.669-.653h-.994Z" fill="#3d1d2e"/>
      <path id="Path_16" data-name="Path 16" d="M126.253,74.961h1.605v.192h-1.605v1.08h1.73v.2h-1.938V73.7h1.891v.2h-1.683Z" fill="#3d1d2e"/>
      <path id="Path_17" data-name="Path 17" d="M129.973,73.7v2.54h1.542v.2h-1.753V73.7Z" fill="#3d1d2e"/>
      <path id="Path_18" data-name="Path 18" d="M133.145,76.437V73.7h.207v2.74Z" fill="#3d1d2e"/>
      <path id="Path_19" data-name="Path 19" d="M137.479,76.437l-.3-.673h-1.636l-.3.673h-.227l1.229-2.74h.231l1.229,2.74Zm-.383-.869L136.36,73.9l-.736,1.668Z" fill="#3d1d2e"/>
      <path id="Path_20" data-name="Path 20" d="M141.4,74.444a.6.6,0,0,1-.446.588.7.7,0,0,1,.54.688c0,.564-.524.717-.994.717h-1.123V73.7h1.123C140.957,73.7,141.4,73.924,141.4,74.444Zm-1.812.493h.94c.328,0,.673-.1.673-.493s-.36-.567-.7-.567h-.912Zm0,1.3h.912c.344,0,.787-.082.787-.517s-.392-.579-.759-.579h-.94Z" fill="#3d1d2e"/>
      <path id="Path_21" data-name="Path 21" d="M143.48,73.7v2.54h1.542v.2h-1.754V73.7Z" fill="#3d1d2e"/>
      <path id="Path_22" data-name="Path 22" d="M146.859,74.961h1.605v.192h-1.605v1.08h1.73v.2h-1.938V73.7h1.891v.2h-1.683Z" fill="#3d1d2e"/>
    </g>
    <path id="Path_23" data-name="Path 23" d="M89.892,47.652a2.558,2.558,0,0,0-1.01-1.671,4.256,4.256,0,0,0-2.388-.533H73.861a3.472,3.472,0,0,0-2.736.882,4.23,4.23,0,0,0-.765,2.754L70.335,60.4a7.644,7.644,0,0,0,.115,1.432A2.526,2.526,0,0,0,71.478,63.5a4.191,4.191,0,0,0,2.333.533H86.444a3.525,3.525,0,0,0,2.772-.882,4.228,4.228,0,0,0,.766-2.754l.026-11.311A7.732,7.732,0,0,0,89.892,47.652ZM85.608,60.177H74.734V49.3H85.608Z" fill="#1d918f"/>
    <path id="Path_24" data-name="Path 24" d="M112.392,47.652a2.558,2.558,0,0,0-1.01-1.671,4.259,4.259,0,0,0-2.388-.533H96.361a3.472,3.472,0,0,0-2.736.882,4.225,4.225,0,0,0-.765,2.754L92.834,60.4a7.629,7.629,0,0,0,.116,1.432A2.526,2.526,0,0,0,93.978,63.5a4.191,4.191,0,0,0,2.333.533h11.8v3.554H96.688a3.854,3.854,0,0,0-3.854,3.854h16.11a3.527,3.527,0,0,0,2.772-.882,4.228,4.228,0,0,0,.766-2.754l.007-10.554.018-8.165A7.66,7.66,0,0,0,112.392,47.652Zm-4.284,7.4v5.127H97.233V49.3h10.875Z" fill="#d00d3f"/>
    <path id="Path_25" data-name="Path 25" d="M135.4,49.084a7.66,7.66,0,0,0-.115-1.432,2.558,2.558,0,0,0-1.01-1.671,4.259,4.259,0,0,0-2.388-.533H119.255a3.472,3.472,0,0,0-2.736.882,4.225,4.225,0,0,0-.765,2.754L115.728,60.4a7.63,7.63,0,0,0,.116,1.432,2.526,2.526,0,0,0,1.028,1.671,4.191,4.191,0,0,0,2.333.533h16.2a3.853,3.853,0,0,0-3.853-3.854H120.127V49.3H131v3.542H126.97a3.79,3.79,0,0,0-3.79,3.791h8.431a3.79,3.79,0,0,0,3.79-3.791h-.008Z" fill="#d00d3f"/>
    <path id="Path_26" data-name="Path 26" d="M143.26,52.781V49.3h1.584a3.854,3.854,0,0,0,3.854-3.854H143.26V38.407h0a4.381,4.381,0,0,0-4.381,4.373L138.861,53c0,.191.008.363.016.528l-.016,6.868a7.731,7.731,0,0,0,.115,1.432,2.53,2.53,0,0,0,1.029,1.671,4.189,4.189,0,0,0,2.333.533h6.36V60.177H143.26v-7.4Z" fill="#d00d3f"/>
    <path id="Path_27" data-name="Path 27" d="M66.473,38.944h0l-.869.16a4.748,4.748,0,0,0-3.765,4.307h0L43.306,45.69a3.619,3.619,0,0,0-1.91,1.056,2.4,2.4,0,0,0-.7,1.707l1.483,12.68a2.358,2.358,0,0,0,.245,1.08,2.86,2.86,0,0,0,.7.9A3.756,3.756,0,0,0,45.566,64H59a3.81,3.81,0,0,0-3.81-3.81H46.831L45.348,49.239h0l16.475-1.807h0v20.2h-13.1a3.81,3.81,0,0,0-3.81,3.811H63.08a3.768,3.768,0,0,0,2.442-.884,2.888,2.888,0,0,0,.767-1.031,2.255,2.255,0,0,0,.184-.918V42.822h0l.847-.09a4.313,4.313,0,0,0,3.856-4.289h0Z" fill="#1d918f"/>
  </g>
</svg>
